<svg width="70" height="21" viewBox="0 0 70 21" fill="none" xmlns="http://www.w3.org/2000/svg">
<path fill-rule="evenodd" clip-rule="evenodd" d="M27.886 0.439941C29.029 0.439941 30.081 0.565941 31.043 0.816941C32.005 1.06894 32.829 1.43194 33.514 1.90694C34.1809 2.36114 34.7337 2.96353 35.129 3.66694C35.519 4.36494 35.714 5.16094 35.714 6.05494C35.714 6.94894 35.476 7.68494 35 8.26094C34.524 8.83894 33.886 9.31394 33.086 9.68594V9.74194C33.9665 10.0899 34.7435 10.6572 35.343 11.3899C35.933 12.1159 36.229 13.1029 36.229 14.3499C36.229 15.4119 36 16.3249 35.543 17.0879C35.0883 17.8492 34.4684 18.4985 33.729 18.9879C32.976 19.4899 32.109 19.8579 31.129 20.0909C30.1318 20.3258 29.1105 20.4433 28.086 20.4409C26.6 20.4409 25.324 20.3009 24.257 20.0209C23.19 19.7409 22.286 19.3039 21.543 18.7079C19.923 17.4419 19.114 15.6269 19.114 13.2609H24.514C24.552 14.1549 24.833 14.8809 25.357 15.4409C25.881 15.9989 26.704 16.2779 27.829 16.2779C28.743 16.2779 29.419 16.0639 29.857 15.6349C30.295 15.2079 30.514 14.6949 30.514 14.0989C30.514 13.3359 30.234 12.7959 29.672 12.4789C29.11 12.1629 28.362 12.0039 27.429 12.0039H26.286V8.37294H27.257C28.172 8.37294 28.886 8.20994 29.4 7.88394C29.914 7.55894 30.171 7.06994 30.171 6.41794C30.171 5.85894 29.967 5.41194 29.557 5.07694C29.147 4.74194 28.562 4.57394 27.8 4.57394C27.305 4.57394 26.886 4.64394 26.543 4.78394C26.2 4.92394 25.919 5.10494 25.7 5.32794C25.48 5.55194 25.314 5.81294 25.2 6.10994C25.086 6.40894 25.01 6.71594 24.971 7.03194H19.714C19.714 6.08194 19.895 5.20794 20.257 4.40694C20.619 3.60694 21.152 2.91194 21.857 2.32594C22.562 1.73894 23.419 1.27794 24.428 0.942941C25.438 0.607941 26.59 0.439941 27.886 0.439941ZM62.686 5.29994C63.714 5.29994 64.653 5.43994 65.5 5.71994C66.347 5.99894 67.081 6.38994 67.7 6.89294C68.3133 7.38901 68.823 8.00098 69.2 8.69394C69.58 9.39294 69.819 10.1609 69.914 10.9989H64.714C64.562 10.3469 64.324 9.84894 64 9.50394C63.676 9.15994 63.219 8.98794 62.629 8.98794C61.79 8.98794 61.171 9.33194 60.771 10.0209C60.371 10.7109 60.171 11.6609 60.171 12.8709C60.171 14.0619 60.381 14.9979 60.801 15.6779C61.219 16.3579 61.847 16.6969 62.686 16.6969C63.352 16.6969 63.852 16.4869 64.186 16.0689C64.519 15.6489 64.724 15.0309 64.8 14.2109H70C70 15.0869 69.824 15.9009 69.472 16.6549C69.1201 17.4085 68.6139 18.0796 67.986 18.6249C67.347 19.1829 66.576 19.6209 65.672 19.9369C64.767 20.2539 63.772 20.4119 62.686 20.4119C61.486 20.4119 60.396 20.2209 59.414 19.8399C58.4758 19.4848 57.6168 18.9482 56.886 18.2609C56.18 17.5893 55.6247 16.7754 55.257 15.8729C54.876 14.9509 54.686 13.9499 54.686 12.8699C54.686 11.7899 54.876 10.7899 55.257 9.86694C55.6269 8.96161 56.1817 8.14349 56.886 7.46494C57.6138 6.77067 58.4734 6.22934 59.414 5.87294C60.395 5.49194 61.486 5.29994 62.686 5.29994ZM9.114 0.439941C10.486 0.439941 11.733 0.677941 12.857 1.15194C13.9553 1.60965 14.9437 2.29546 15.757 3.16394C16.567 4.02994 17.19 5.08194 17.629 6.31994C18.067 7.55894 18.286 8.93194 18.286 10.4399C18.286 11.9669 18.057 13.3449 17.6 14.5739C17.143 15.8039 16.505 16.8509 15.686 17.7169C14.8675 18.5824 13.8737 19.2632 12.771 19.7139C11.647 20.1789 10.428 20.4119 9.114 20.4119C7.819 20.4119 6.614 20.1789 5.5 19.7139C4.40606 19.2627 3.42184 18.5817 2.614 17.7169C1.804 16.8509 1.167 15.8029 0.7 14.5739C0.233 13.3449 0 11.9669 0 10.4399C0 8.93194 0.229 7.55994 0.686 6.31994C1.143 5.08194 1.776 4.02994 2.586 3.16394C3.39507 2.29784 4.37782 1.61223 5.47 1.15194C6.586 0.677941 7.801 0.439941 9.114 0.439941ZM45.857 0.439941C47.152 0.439941 48.29 0.598941 49.271 0.914941C50.252 1.23194 51.071 1.66494 51.729 2.21394C52.3665 2.73833 52.8746 3.4025 53.214 4.15494C53.547 4.89994 53.714 5.70994 53.714 6.58494C53.714 7.44194 53.586 8.20994 53.328 8.88994C53.0631 9.58194 52.6486 10.2068 52.114 10.7199C51.619 11.1849 51.1 11.6099 50.557 11.9899C50.014 12.3719 49.461 12.7399 48.9 13.0939L47.214 14.1549C46.652 14.5089 46.114 14.8909 45.6 15.2999V15.3559H53.6V19.9659H37.257C37.257 19.2759 37.295 18.6619 37.371 18.1219C37.447 17.5819 37.571 17.0879 37.743 16.6419C37.914 16.1939 38.143 15.7799 38.428 15.3979C38.7416 14.9865 39.0957 14.6076 39.485 14.2669C39.9926 13.8132 40.5219 13.3844 41.071 12.9819C41.652 12.5539 42.243 12.1299 42.843 11.7119C43.443 11.2919 44.047 10.8819 44.657 10.4819C45.267 10.0819 45.837 9.70494 46.371 9.35094C46.924 8.97894 47.347 8.59194 47.643 8.19094C47.938 7.79094 48.086 7.33094 48.086 6.80894C48.086 6.21294 47.89 5.73294 47.5 5.36994C47.11 5.00694 46.524 4.82494 45.743 4.82494C44.809 4.82494 44.123 5.10494 43.686 5.66394C43.4208 5.97734 43.2257 6.34389 43.114 6.73894C43 7.13894 42.943 7.65594 42.943 8.28894H37.57C37.57 7.73094 37.584 7.23694 37.613 6.80894C37.642 6.38094 37.693 5.99394 37.77 5.64894C37.846 5.30494 37.946 4.98394 38.07 4.68594C38.194 4.38794 38.351 4.08094 38.542 3.76394C39.094 2.81394 39.98 2.02394 41.199 1.38994C42.418 0.756941 43.97 0.439941 45.856 0.439941H45.857ZM9.143 4.51794C8.553 4.51794 8.047 4.66794 7.628 4.96494C7.209 5.26294 6.871 5.67794 6.614 6.20794C6.357 6.73894 6.167 7.36294 6.043 8.07994C5.9139 8.85987 5.85167 9.64941 5.857 10.4399C5.857 11.2969 5.919 12.0839 6.043 12.7999C6.167 13.5179 6.357 14.1319 6.614 14.6439C6.871 15.1559 7.209 15.5569 7.628 15.8449C8.048 16.1349 8.552 16.2779 9.143 16.2779C9.733 16.2779 10.238 16.1339 10.657 15.8449C11.076 15.5569 11.414 15.1559 11.671 14.6439C11.929 14.1319 12.119 13.5179 12.243 12.7999C12.367 12.0839 12.429 11.2969 12.429 10.4399C12.429 9.58394 12.367 8.79694 12.243 8.07994C12.119 7.36294 11.929 6.73994 11.671 6.20794C11.414 5.67794 11.076 5.26294 10.657 4.96494C10.237 4.66794 9.733 4.51794 9.143 4.51794Z" fill="black"/>
</svg>
