<svg width="312" height="179" viewBox="0 0 312 179" fill="none" xmlns="http://www.w3.org/2000/svg">
<path d="M10.5192 0C4.70959 0 0 4.71225 0 10.5251V42.2934C0 48.1063 4.70959 52.8185 10.5192 52.8185L48.0831 52.8164L64.2384 64.1138C64.5905 64.36 64.9974 64.5161 65.4236 64.5685L65.7447 64.5882C67.0934 64.5882 68.2049 63.5725 68.3568 62.2638L68.3745 61.957V10.5251C68.3745 4.71225 63.6649 0 57.8554 0H10.5192Z" fill="white"/>
<path d="M40.8828 19.5535H13.9862C12.7978 19.5535 11.8345 20.5174 11.8345 21.7065C11.8345 22.8955 12.7978 23.8594 13.9862 23.8594H40.8828C42.0711 23.8594 43.0345 22.8955 43.0345 21.7065C43.0345 20.5174 42.0711 19.5535 40.8828 19.5535ZM52.7172 8.78882H13.9862C12.7978 8.78882 11.8345 9.75272 11.8345 10.9418C11.8345 12.1308 12.7978 13.0947 13.9862 13.0947H52.7172C53.9056 13.0947 54.869 12.1308 54.869 10.9418C54.869 9.75272 53.9056 8.78882 52.7172 8.78882Z" fill="black"/>
<path d="M301.481 71.2766C307.29 71.2766 312 75.9889 312 81.8017V113.57C312 119.383 307.29 124.095 301.481 124.095L263.917 124.093L247.762 135.39C247.41 135.637 247.003 135.793 246.576 135.845L246.255 135.865C244.907 135.865 243.795 134.849 243.643 133.54L243.625 133.234V81.8017C243.625 75.9889 248.335 71.2766 254.145 71.2766H301.481Z" fill="black"/>
<path d="M278.5 112.48C286.603 112.48 293.173 105.907 293.173 97.799C293.173 89.6907 286.603 83.1177 278.5 83.1177C270.396 83.1177 263.827 89.6907 263.827 97.799C263.827 105.907 270.396 112.48 278.5 112.48Z" stroke="white" stroke-width="2"/>
<path d="M272.666 100.022C272.666 103.246 275.278 105.859 278.5 105.859C281.722 105.859 284.334 103.246 284.334 100.022" stroke="white" stroke-width="2" stroke-linecap="round"/>
<path d="M284.334 95.6438C285.139 95.6438 285.792 94.9904 285.792 94.1844C285.792 93.3785 285.139 92.7251 284.334 92.7251C283.528 92.7251 282.875 93.3785 282.875 94.1844C282.875 94.9904 283.528 95.6438 284.334 95.6438Z" fill="white"/>
<path d="M272.666 95.6438C273.471 95.6438 274.124 94.9904 274.124 94.1844C274.124 93.3785 273.471 92.7251 272.666 92.7251C271.86 92.7251 271.207 93.3785 271.207 94.1844C271.207 94.9904 271.86 95.6438 272.666 95.6438Z" fill="white"/>
<path d="M165.723 108.962L220.518 137.061C225.959 139.851 225.959 144.374 220.518 147.164L165.723 175.263C160.282 178.052 151.461 178.052 146.021 175.263L91.2252 147.164C85.7847 144.374 85.7847 139.851 91.2252 137.061L146.021 108.962C151.461 106.173 160.282 106.173 165.723 108.962V108.962Z" stroke="#096634" stroke-width="3"/>
<path d="M165.723 70.5965L220.518 98.6951C225.959 101.485 225.959 106.008 220.518 108.798L165.723 136.897C160.282 139.686 151.461 139.686 146.021 136.897L91.2252 108.798C85.7847 106.008 85.7847 101.485 91.2252 98.6951L146.021 70.5965C151.461 67.8067 160.282 67.8067 165.723 70.5965Z" stroke="#B80000" stroke-width="3" stroke-linecap="round" stroke-linejoin="round"/>
<path d="M165.723 32.2306L220.518 60.3292C225.959 63.119 225.959 67.6422 220.518 70.4321L165.723 98.5307C160.282 101.321 151.461 101.321 146.021 98.5307L91.2252 70.4321C85.7847 67.6422 85.7847 63.119 91.2252 60.3292L146.021 32.2306C151.461 29.4407 160.282 29.4407 165.723 32.2306V32.2306Z" stroke="#D1D292" stroke-width="3"/>
</svg>
