<svg width="50" height="25" viewBox="0 0 50 25" fill="none" xmlns="http://www.w3.org/2000/svg">
<path d="M29.189 13.2019C31.83 13.2019 33.808 14.7599 34.087 16.9719H31.347C31.075 16.0089 30.26 15.4219 29.197 15.4219C27.627 15.4219 26.698 16.6489 26.698 18.7639C26.698 20.9169 27.725 22.2199 29.317 22.2199C30.57 22.2199 31.445 21.4819 31.521 20.3899L31.528 20.2249H29.536V18.3279H34.2V19.6599C34.2 22.6259 32.359 24.4399 29.257 24.4399C25.898 24.4399 23.875 22.3699 23.875 18.8019C23.875 15.2789 25.898 13.2019 29.189 13.2019ZM45.057 13.2019C47.811 13.2019 49.902 14.9709 49.985 17.5369H47.32C47.184 16.2569 46.27 15.4149 45.056 15.4149C43.546 15.4149 42.588 16.7019 42.588 18.8099C42.588 20.9399 43.538 22.2269 45.063 22.2269C46.278 22.2269 47.161 21.4289 47.335 20.1569H50C49.872 22.7389 47.864 24.4399 45.057 24.4399C41.797 24.4399 39.766 22.3699 39.766 18.8169C39.766 15.2719 41.811 13.2019 45.056 13.2019H45.057ZM3.2 13.3899L5.947 20.3679H6.007L8.755 13.3899H11.955V24.2519H9.517V17.4699H9.464L6.77 24.1389H5.185L2.498 17.4689H2.438V24.2519H0V13.3899H3.2ZM20.085 13.3899L23.745 24.2519H20.802L20.115 21.8659H16.553L15.859 24.2519H13.036L16.696 13.3899H20.085ZM38.383 13.3899V24.2519H35.613V13.3899H38.383ZM18.364 15.6929H18.304L17.089 19.8779H19.572L18.364 15.6929ZM36.864 8.59994C37.648 8.59994 38.267 9.22494 38.267 9.99994C38.267 10.7749 37.648 11.3999 36.863 11.3999C36.6792 11.4003 36.4972 11.3644 36.3274 11.2941C36.1576 11.2238 36.0033 11.1207 35.8736 10.9905C35.7438 10.8604 35.6411 10.7059 35.5713 10.5359C35.5015 10.3659 35.4661 10.1837 35.467 9.99994C35.467 9.22494 36.086 8.59994 36.863 8.59994H36.864ZM14.133 0.439941V11.3019H11.363V0.439941H14.133ZM18.028 0.439941L22.648 6.75594H22.708V0.439941H25.334V11.3019H23.145L18.504 4.92694H18.444V11.3019H15.817V0.439941H18.028ZM35.351 0.439941V2.66794H32.332V11.3019H29.562V2.66794H26.543V0.439941H35.351Z" fill="black"/>
</svg>
