<svg width="53" height="16" viewBox="0 0 53 16" fill="none" xmlns="http://www.w3.org/2000/svg">
<g clip-path="url(#clip0)">
<path d="M9.51921 0.770854C9.86088 0.966618 10.1448 1.24897 10.3426 1.58968L16.4878 12.1741C16.6851 12.5142 16.7889 12.8999 16.7889 13.2925C16.7889 13.6851 16.6849 14.0707 16.4876 14.4107C16.2902 14.7508 16.0063 15.0331 15.6645 15.2295C15.3226 15.4259 14.9348 15.5293 14.54 15.5294H2.2497C1.85483 15.5295 1.46692 15.4261 1.12493 15.2298C0.782945 15.0335 0.498938 14.7512 0.301452 14.4112C0.103966 14.0711 -4.308e-05 13.6854 -0.000122025 13.2927C-0.000200971 12.9 0.103653 12.5143 0.301002 12.1741L6.44616 1.58968C6.74449 1.07585 7.23586 0.700919 7.81216 0.547361C8.38847 0.393802 9.00251 0.474195 9.51921 0.770854Z" fill="black"/>
<path d="M26.5001 0C24.3665 0 22.3203 0.842855 20.8117 2.34315C19.303 3.84344 18.4554 5.87827 18.4554 8C18.4554 10.1217 19.303 12.1566 20.8117 13.6569C22.3203 15.1571 24.3665 16 26.5001 16C28.6337 16 30.6798 15.1571 32.1885 13.6569C33.6972 12.1566 34.5447 10.1217 34.5447 8C34.5447 5.87827 33.6972 3.84344 32.1885 2.34315C30.6798 0.842855 28.6337 0 26.5001 0Z" fill="black"/>
<path d="M50.1607 0.470581H40.6965C39.1284 0.470581 37.8572 1.73472 37.8572 3.29411V12.7059C37.8572 14.2653 39.1284 15.5294 40.6965 15.5294H50.1607C51.7288 15.5294 53 14.2653 53 12.7059V3.29411C53 1.73472 51.7288 0.470581 50.1607 0.470581Z" fill="black"/>
</g>
<defs>
<clipPath id="clip0">
<rect width="53" height="16" fill="white"/>
</clipPath>
</defs>
</svg>
