<svg width="208" height="13" viewBox="0 0 208 13" fill="none" xmlns="http://www.w3.org/2000/svg">
<path d="M54.98 0.439941C55.577 0.439941 56.142 0.530941 56.708 0.697941C57.2558 0.859318 57.7688 1.1211 58.221 1.46994C58.68 1.81894 59.046 2.24294 59.337 2.74294C59.627 3.24294 59.811 3.81894 59.872 4.46994H57.442C57.289 3.83394 56.998 3.34994 56.57 3.03094C56.142 2.71294 55.607 2.54594 54.996 2.54594C54.43 2.54594 53.941 2.66694 53.544 2.87994C53.1483 3.08413 52.8115 3.38644 52.566 3.75794C52.306 4.12194 52.122 4.54594 52.016 5.01594C51.9053 5.49274 51.8487 5.98047 51.847 6.46994C51.847 6.95494 51.908 7.42494 52.015 7.87994C52.138 8.33394 52.321 8.74294 52.565 9.10694C52.825 9.46994 53.146 9.77294 53.544 9.98594C53.941 10.2129 54.43 10.3189 54.996 10.3189C55.836 10.3189 56.494 10.1069 56.952 9.68294C57.411 9.25794 57.671 8.65294 57.747 7.84894H55.195V5.96994H60.055V12.1669H58.435L58.175 10.8639C57.717 11.4399 57.212 11.8489 56.647 12.0919C56.097 12.3189 55.547 12.4399 54.981 12.4399C54.094 12.4399 53.299 12.2889 52.596 11.9859C51.9178 11.6977 51.3084 11.2689 50.808 10.7279C50.3147 10.1764 49.9355 9.5327 49.692 8.83394C49.432 8.12194 49.31 7.33394 49.31 6.50094C49.31 5.65194 49.432 4.84894 49.692 4.12094C49.9318 3.41184 50.3113 2.75797 50.808 2.19794C51.3069 1.64781 51.9162 1.20895 52.596 0.909941C53.3 0.591941 54.094 0.439941 54.981 0.439941H54.98ZM182.107 0.454941C182.718 0.454941 183.299 0.514941 183.85 0.651941C184.4 0.788941 184.904 1.00094 185.332 1.30394C185.76 1.60694 186.096 1.98594 186.356 2.45494C186.616 2.92494 186.738 3.48494 186.738 4.15194H184.278C184.27 3.8568 184.197 3.56709 184.063 3.30394C183.95 3.087 183.781 2.90407 183.574 2.77394C183.36 2.63792 183.121 2.54518 182.871 2.50094C182.583 2.45178 182.292 2.42636 182 2.42494C181.801 2.42494 181.603 2.43994 181.389 2.48494C181.188 2.5262 180.996 2.60345 180.823 2.71294C180.661 2.8158 180.52 2.9497 180.41 3.10694C180.294 3.28714 180.235 3.49855 180.242 3.71294C180.242 3.93994 180.272 4.12194 180.364 4.25794C180.441 4.39494 180.609 4.51594 180.869 4.63794C181.129 4.74294 181.48 4.86394 181.924 4.98594C182.367 5.10594 182.963 5.25794 183.681 5.43994C183.895 5.46994 184.201 5.56094 184.583 5.66694C184.965 5.78894 185.347 5.96994 185.73 6.21294C186.112 6.45494 186.433 6.78894 186.708 7.19794C186.983 7.60694 187.121 8.13794 187.121 8.77294C187.121 9.28894 187.014 9.77294 186.815 10.2279C186.601 10.6829 186.295 11.0609 185.898 11.3949C185.443 11.7367 184.93 11.9932 184.384 12.1519C183.788 12.3339 183.101 12.4249 182.306 12.4249C181.682 12.4261 181.061 12.3498 180.456 12.1979C179.884 12.0588 179.345 11.8117 178.866 11.4699C178.407 11.1357 178.03 10.7005 177.766 10.1979C177.506 9.68294 177.369 9.07594 177.384 8.36394H179.844C179.844 8.74394 179.921 9.07594 180.044 9.37994C180.196 9.65194 180.38 9.86394 180.609 10.0309C180.854 10.1979 181.129 10.3189 181.434 10.3949C181.755 10.4699 182.076 10.5149 182.413 10.5149C182.642 10.5149 182.887 10.4849 183.146 10.4549C183.406 10.4249 183.651 10.3489 183.88 10.2429C184.11 10.1369 184.293 9.98594 184.446 9.80294C184.598 9.62194 184.675 9.37994 184.675 9.09194C184.675 8.77294 184.568 8.53094 184.369 8.33394C184.146 8.11915 183.88 7.95387 183.589 7.84894C183.231 7.71145 182.863 7.60015 182.489 7.51594C182.076 7.42494 181.664 7.31894 181.236 7.19794C180.806 7.09179 180.382 6.96023 179.967 6.80394C179.572 6.65727 179.202 6.45307 178.867 6.19794C178.544 5.94852 178.278 5.63318 178.087 5.27294C177.888 4.89494 177.781 4.45494 177.781 3.92494C177.781 3.33494 177.919 2.83494 178.163 2.39494C178.408 1.95494 178.744 1.59194 179.157 1.30394C179.57 1.01594 180.028 0.803941 180.547 0.666941C181.056 0.529538 181.58 0.458284 182.107 0.454941ZM202.987 0.454941C203.597 0.454941 204.179 0.514941 204.729 0.651941C205.279 0.788941 205.784 1.00094 206.212 1.30394C206.64 1.60694 206.976 1.98594 207.236 2.45494C207.496 2.92494 207.618 3.48494 207.618 4.15194H205.157C205.15 3.85688 205.077 3.56717 204.943 3.30394C204.83 3.08688 204.661 2.90393 204.453 2.77394C204.239 2.63805 204.001 2.54531 203.751 2.50094C203.463 2.45172 203.171 2.4263 202.879 2.42494C202.674 2.42248 202.47 2.4426 202.269 2.48494C202.068 2.5262 201.876 2.60345 201.703 2.71294C201.537 2.81143 201.396 2.94613 201.29 3.10694C201.174 3.28714 201.115 3.49855 201.122 3.71294C201.122 3.93994 201.152 4.12194 201.244 4.25794C201.32 4.39494 201.489 4.51594 201.748 4.63794C202.008 4.74294 202.36 4.86394 202.803 4.98594C203.246 5.10594 203.843 5.25794 204.561 5.43994C204.775 5.46994 205.081 5.56094 205.463 5.66694C205.845 5.78894 206.227 5.96994 206.609 6.21294C206.991 6.45494 207.312 6.78894 207.587 7.19794C207.862 7.60694 208 8.13794 208 8.77294C208 9.28894 207.893 9.77294 207.694 10.2279C207.487 10.6855 207.173 11.086 206.777 11.3949C206.323 11.7366 205.81 11.9931 205.264 12.1519C204.668 12.3339 203.98 12.4249 203.185 12.4249C202.561 12.4261 201.94 12.3498 201.335 12.1979C200.764 12.0587 200.224 11.8116 199.746 11.4699C199.287 11.1357 198.91 10.7005 198.646 10.1979C198.386 9.68294 198.248 9.07594 198.263 8.36394H200.724C200.724 8.74394 200.801 9.07594 200.923 9.37994C201.076 9.65194 201.259 9.86394 201.489 10.0309C201.733 10.1979 202.009 10.3189 202.314 10.3949C202.634 10.4699 202.956 10.5149 203.292 10.5149C203.522 10.5149 203.766 10.4849 204.026 10.4549C204.286 10.4249 204.53 10.3489 204.76 10.2429C204.989 10.1369 205.172 9.98594 205.325 9.80294C205.478 9.62194 205.555 9.37994 205.555 9.09194C205.555 8.77294 205.447 8.53094 205.249 8.33394C205.026 8.11915 204.76 7.95387 204.469 7.84894C204.111 7.71145 203.743 7.60015 203.369 7.51594C202.956 7.42494 202.543 7.31894 202.115 7.19794C201.685 7.09176 201.262 6.96019 200.847 6.80394C200.452 6.65736 200.081 6.45315 199.746 6.19794C199.42 5.95208 199.153 5.63593 198.966 5.27294C198.768 4.89494 198.661 4.45494 198.661 3.92494C198.661 3.33494 198.798 2.83494 199.043 2.39494C199.287 1.95494 199.623 1.59194 200.036 1.30394C200.449 1.01594 200.908 0.803941 201.427 0.666941C201.936 0.529538 202.46 0.458284 202.987 0.454941ZM119.514 0.697941V2.81794H116.044V12.1679H113.507V2.81794H110.037V0.698941H119.514V0.697941ZM145.79 0.697941L150.115 12.1679H147.471L146.6 9.60694H142.274L141.357 12.1669H138.804L143.176 0.696941H145.79V0.697941ZM44.25 0.697941L48.576 12.1679H45.932L45.061 9.60694H40.735L39.833 12.1669H37.28L41.637 0.696941H44.25V0.697941ZM3.592 0.697941L6.297 8.57594H6.328L8.881 0.697941H12.457V12.1679H10.073V4.04494H10.043L7.199 12.1659H5.243L2.415 4.12194H2.385V12.1669H0V0.696941H3.592V0.697941ZM197.422 0.697941V2.81794H193.953V12.1679H191.416V2.81794H187.946V0.698941H197.423L197.422 0.697941ZM20.696 0.697941L25.006 12.1679H22.362L21.491 9.60694H17.165L16.263 12.1669H13.711L18.082 0.696941H20.696V0.697941ZM101.249 0.697941L106.063 8.39494H106.094V0.697941H108.479V12.1679H105.941L101.126 4.48594H101.096V12.1669H98.71V0.696941H101.248L101.249 0.697941ZM28.782 0.697941L33.597 8.39494H33.627V0.697941H36.012V12.1679H33.474L28.66 4.48494H28.629V12.1659H26.245V0.696941H28.782V0.697941ZM175.642 0.697941V12.1679H173.104V0.696941H175.641L175.642 0.697941ZM171.545 0.697941V2.81794H168.075V12.1679H165.538V2.81794H162.068V0.698941H171.545V0.697941ZM157.575 0.697941C158.095 0.697941 158.553 0.772941 158.981 0.939941C159.393 1.10694 159.761 1.33394 160.051 1.62194C160.341 1.90994 160.571 2.24294 160.738 2.62194C160.907 3.00094 160.968 3.40994 160.968 3.84894C160.968 4.53094 160.83 5.10694 160.54 5.60694C160.25 6.10694 159.79 6.46994 159.133 6.72794V6.75794C159.439 6.84894 159.699 6.96994 159.913 7.15194C160.112 7.33394 160.28 7.53094 160.417 7.77294C160.555 8.01594 160.647 8.27294 160.707 8.56094C160.769 8.84894 160.815 9.13694 160.83 9.42494C160.845 9.60694 160.845 9.81894 160.86 10.0609C160.876 10.3039 160.891 10.5609 160.922 10.8189C160.952 11.0759 160.998 11.3189 161.044 11.5459C161.09 11.7729 161.197 11.9699 161.304 12.1369H158.767C158.616 11.718 158.528 11.2788 158.507 10.8339C158.477 10.3339 158.43 9.84894 158.354 9.39394C158.262 8.78894 158.079 8.34894 157.804 8.07594C157.529 7.80394 157.07 7.65194 156.428 7.65194H153.891V12.1669H151.353V0.696941H157.574L157.575 0.697941ZM70.999 0.697941V2.81794H64.885V5.27294H70.495V7.24294H64.885V10.0459H71.122V12.1669H62.332V0.696941H71L70.999 0.697941ZM96.663 0.697941V2.81794H90.55V5.27294H96.16V7.24294H90.55V10.0459H96.786V12.1669H87.997V0.696941H96.664L96.663 0.697941ZM76.655 0.697941L79.36 8.57594H79.39L81.945 0.697941H85.521V12.1679H83.137V4.04494H83.107L80.278 12.1659H78.322L75.479 4.12094H75.449V12.1659H73.064V0.696941H76.656L76.655 0.697941ZM129.389 2.37994V6.05994H133.088V6.36294H129.388V10.0449H129.083V6.36394H125.383V6.06094H129.083V2.37994H129.389ZM144.475 3.53094H144.445L142.931 7.72794H145.927L144.475 3.53094ZM42.935 3.53094H42.905L41.392 7.72794H44.403L42.936 3.53094H42.935ZM19.382 3.53094H19.351L17.838 7.72794H20.834L19.382 3.53094ZM156.672 2.66694H153.891V5.89494H156.673C157.253 5.89494 157.697 5.77294 157.987 5.51494C158.277 5.25794 158.43 4.83494 158.43 4.25794C158.43 3.69794 158.277 3.30394 157.987 3.04594C157.697 2.78894 157.253 2.66694 156.673 2.66694H156.672Z" fill="black"/>
</svg>
