<svg width="46" height="34" viewBox="0 0 46 34" fill="none" xmlns="http://www.w3.org/2000/svg">
<g clip-path="url(#clip0)">
<path fill-rule="evenodd" clip-rule="evenodd" d="M6.593 0L6.607 0.023C6.817 0.378 9.388 4.731 9.491 4.916L9.494 4.922V0H16.488V3.82H29.093C29.093 3.82 30.313 3.3 32.163 3.352C34.133 3.41 35.057 4.356 35.057 4.356C35.057 4.356 37.03 3.317 38.907 3.352C40.483 3.382 41.911 3.61 43.096 5.002C44.142 6.227 44.046 7.836 44.039 7.927V18.567L37.711 18.565C37.711 18.565 40.251 19.363 41.879 20.782C42.376 21.217 42.987 21.898 43.042 21.959L43.046 21.963L40.506 24.435C40.506 24.435 41.334 25.072 41.657 25.534C42.062 26.115 42.174 26.552 42.185 26.599L42.186 26.603H46V33.627H38.988V33.065C38.988 33.065 37.976 33.893 35.058 33.911C31.342 33.933 28.863 32.173 28.77 32.106L28.768 32.104V33.627H21.9V33.065C21.9 33.065 21.015 33.889 18.067 33.911C14.355 33.937 12.638 32.104 12.638 32.104C12.638 32.104 11.676 33.31 10.167 33.713C7.634 34.389 6.274 33.665 6.106 33.628L6.096 33.627H0V0H6.593ZM5.63 1.73H1.76V31.885H4.985V30.784H5.028C5.38765 31.2175 5.83763 31.5672 6.34648 31.8086C6.85533 32.0501 7.41078 32.1775 7.974 32.182C10.07 32.182 11.83 31.224 12.637 28.985C13.427 30.899 15.207 32.182 17.784 32.182C20.274 32.182 22.071 31.239 23.235 29.237L23.331 29.067L20.816 27.776C19.848 29.131 19.266 29.766 18.02 29.766C16.97 29.766 15.615 29.121 15.53 27.084L15.526 26.929H23.396C23.374 23.455 21.956 20.321 17.784 20.321C15.353 20.321 13.604 21.455 12.754 23.481C11.97 21.224 10.02 20.321 8.254 20.321C7.407 20.321 6.308 20.534 5.369 21.399L5.242 21.522V7.32H5.286L10.898 16.81H14.726V1.73H11.242V11.367H11.2L5.63 1.73ZM35.214 20.32C32.893 20.32 30.376 21.421 30.376 24.26C30.376 28.264 37.15 26.865 37.15 28.623C37.15 29.64 35.88 29.766 35.322 29.766C33.859 29.766 32.83 29.202 31.839 28.298L31.71 28.178L29.623 29.958C31.301 31.482 32.72 32.182 35.213 32.182C37.709 32.182 40.375 31.122 40.375 28.157C40.375 23.942 33.602 25.53 33.602 23.604C33.602 23.032 34.204 22.734 35.043 22.734C36.049 22.734 37.406 23.122 38.108 23.838L38.204 23.942L40.267 21.951C38.721 20.935 36.977 20.321 35.214 20.321V20.32ZM30.144 20.575C29.025 20.655 27.865 21.039 27.124 21.655L27.005 21.761V20.617H23.651V31.885H27.005V25.361C27.005 24.147 27.757 23.793 29.633 23.561L29.801 23.541L30.166 23.497L30.145 20.575H30.144ZM44.232 28.326H40.748V31.885H44.232V28.326ZM42.584 28.99C42.962 28.993 43.264 29.167 43.264 29.592C43.265 29.6963 43.2355 29.7986 43.1789 29.8862C43.1224 29.9738 43.0414 30.0429 42.946 30.085V30.092C43.0631 30.1142 43.1684 30.1776 43.2427 30.2709C43.3171 30.3641 43.3555 30.4809 43.351 30.6C43.351 31.082 43.008 31.275 42.558 31.275C42.107 31.275 41.764 31.082 41.764 30.6C41.764 30.348 41.917 30.145 42.169 30.092V30.085C42.0737 30.0428 41.9927 29.9737 41.9362 29.8861C41.8797 29.7985 41.8501 29.6962 41.851 29.592C41.851 29.167 42.152 28.993 42.584 28.99ZM42.558 30.262C42.358 30.262 42.293 30.392 42.293 30.574C42.293 30.758 42.358 30.889 42.558 30.889C42.756 30.889 42.822 30.758 42.822 30.574C42.822 30.393 42.756 30.262 42.558 30.262ZM42.558 29.377C42.427 29.377 42.342 29.447 42.342 29.644C42.342 29.844 42.427 29.914 42.558 29.914C42.689 29.914 42.773 29.844 42.773 29.644C42.773 29.447 42.689 29.377 42.558 29.377ZM7.436 22.735C9.221 22.735 9.694 24.091 9.759 26.251C9.759 28.178 9.156 29.766 7.436 29.766C5.695 29.766 5.093 28.178 5.093 26.251C5.093 24.324 5.695 22.735 7.436 22.735ZM25.335 25.008C25.762 25.008 25.975 25.228 26.04 25.613L25.517 25.665C25.5 25.542 25.463 25.415 25.312 25.415C25.047 25.415 24.994 25.72 24.984 26.07H24.994C25.0474 25.9964 25.1181 25.937 25.1999 25.8972C25.2817 25.8575 25.3721 25.8385 25.463 25.842C25.773 25.842 26.086 26.045 26.086 26.528C26.086 26.992 25.76 27.294 25.298 27.294C24.886 27.294 24.475 27.062 24.475 26.232C24.475 25.655 24.628 25.008 25.335 25.008ZM13.239 25.008L13.202 25.433H12.356L12.3 25.82C12.4029 25.7407 12.5302 25.6997 12.66 25.704C13.049 25.704 13.333 26.002 13.333 26.442C13.333 26.852 13.073 27.249 12.477 27.249C11.944 27.249 11.725 26.937 11.725 26.515L12.235 26.493V26.563C12.235 26.75 12.362 26.863 12.49 26.863C12.702 26.863 12.785 26.673 12.785 26.483C12.785 26.258 12.705 26.07 12.503 26.07C12.402 26.07 12.313 26.116 12.258 26.242L11.814 26.167L11.958 25.008H13.238H13.239ZM25.309 26.228C25.154 26.228 25.043 26.344 25.043 26.548C25.043 26.768 25.138 26.888 25.308 26.888C25.488 26.888 25.576 26.763 25.576 26.548C25.576 26.377 25.492 26.228 25.308 26.228H25.309ZM32.933 22.85V23.257C32.554 23.642 32.202 24.364 32.162 25.045H31.548C31.6755 24.3901 31.972 23.78 32.408 23.275H31.354V22.85H32.934H32.933ZM17.762 22.735C18.7 22.735 19.861 23.213 20.028 24.748L20.041 24.895H15.483C15.633 23.413 16.795 22.735 17.762 22.735ZM3.981 17.764V19.087H4.277V19.454H3.983V19.96H3.451V19.454H2.565V19.067L3.483 17.764H3.981ZM3.451 18.324H3.444L2.938 19.087H3.451V18.324ZM18.338 5.542H14.984V13.867C14.984 15.561 15.736 17.107 18.446 17.107C19.435 17.107 20.78 16.834 21.647 15.936L21.757 15.816V16.81H25.112V5.542H21.758V12.68C21.758 13.908 20.94 14.438 19.972 14.438C18.747 14.438 18.365 13.944 18.34 13.014L18.338 12.913V5.543V5.542ZM38.744 5.246C37.41 5.246 36.164 5.649 35.067 6.75C34.315 5.754 33.346 5.246 32.035 5.246C31.046 5.246 29.701 5.518 28.835 6.417L28.725 6.538V5.542H25.37V16.81H28.724V9.799C28.724 8.783 29.154 7.914 30.509 7.914C31.757 7.914 32.119 8.609 32.141 9.651L32.142 9.757V16.81H35.497V9.883C35.497 8.741 36.077 7.914 37.196 7.914C38.426 7.914 38.889 8.591 38.916 10.081V16.81H42.271V8.21C42.271 5.627 39.862 5.246 38.744 5.246ZM27.158 6.196C27.576 6.196 27.888 6.389 27.888 6.806C27.888 7.072 27.736 7.207 27.553 7.272V7.278C27.801 7.352 27.966 7.517 27.966 7.788C27.966 8.33 27.51 8.482 27.118 8.482C26.548 8.482 26.337 8.208 26.337 7.693L26.861 7.651C26.8507 7.68776 26.846 7.72585 26.847 7.764C26.847 7.925 26.907 8.076 27.117 8.076C27.281 8.076 27.383 7.98 27.383 7.783C27.383 7.561 27.275 7.463 27.105 7.463H27.003V7.097H27.118C27.256 7.097 27.34 7.014 27.34 6.862C27.34 6.725 27.305 6.601 27.122 6.601C26.962 6.601 26.899 6.765 26.89 6.917L26.38 6.876C26.405 6.416 26.733 6.196 27.158 6.196ZM16.624 6.196C17.076 6.196 17.386 6.442 17.386 6.856C17.386 7.336 17.174 7.555 16.543 8.006V8.012H17.386V8.437H15.863V8.051C16.71 7.394 16.838 7.226 16.838 6.859C16.838 6.679 16.759 6.583 16.635 6.583C16.451 6.583 16.415 6.795 16.415 6.924C16.415 6.965 16.418 7.001 16.425 7.055L15.886 7.007V6.915C15.886 6.563 16.148 6.197 16.624 6.197V6.196ZM3.477 2.683V4.879H2.947V3.275C2.807 3.327 2.623 3.339 2.47 3.349V3.001C2.8 2.992 2.963 2.889 3.061 2.682H3.477V2.683Z" fill="white"/>
</g>
<defs>
<clipPath id="clip0">
<rect width="46" height="34" fill="white"/>
</clipPath>
</defs>
</svg>
