<svg width="84" height="13" viewBox="0 0 84 13" fill="none" xmlns="http://www.w3.org/2000/svg">
<path fill-rule="evenodd" clip-rule="evenodd" d="M79.146 0.439941C79.791 0.439941 80.377 0.531941 80.905 0.713941C81.432 0.896941 81.89 1.14394 82.28 1.45394C82.76 1.83094 83.137 2.29294 83.409 2.83994C83.679 3.38794 83.851 3.98394 83.923 4.62794H81.205C81.1437 4.13316 80.913 3.67486 80.552 3.33094C80.188 2.98294 79.715 2.80794 79.131 2.80794C78.681 2.80794 78.291 2.89894 77.963 3.08194C77.6332 3.26661 77.3538 3.52927 77.149 3.84694C76.9223 4.20287 76.7589 4.59532 76.666 5.00694C76.5547 5.48452 76.5003 5.97359 76.504 6.46394C76.504 6.99094 76.566 7.47694 76.689 7.92194C76.812 8.36794 76.989 8.75194 77.219 9.07394C77.449 9.39594 77.725 9.64794 78.048 9.83094C78.371 10.0129 78.736 10.1049 79.146 10.1049C79.761 10.1049 80.254 9.92494 80.628 9.56494C81.002 9.20494 81.22 8.74594 81.281 8.18794H84C83.9635 8.75036 83.8256 9.30155 83.593 9.81494C83.363 10.3189 83.058 10.7599 82.679 11.1349C82.249 11.5649 81.749 11.8899 81.181 12.1099C80.613 12.3299 79.94 12.4399 79.161 12.4399C78.353 12.4399 77.615 12.2899 76.95 11.9889C76.2975 11.6982 75.7138 11.2729 75.237 10.7409C74.7483 10.1882 74.3726 9.54509 74.131 8.84794C73.8638 8.08185 73.7311 7.27527 73.739 6.46394C73.739 5.60494 73.867 4.80794 74.124 4.07194C74.3601 3.37124 74.7303 2.7232 75.214 2.16394C75.6861 1.626 76.2673 1.19477 76.919 0.898941C77.584 0.592941 78.327 0.439941 79.146 0.439941ZM33.981 0.665941V8.21994C33.981 8.78994 34.127 9.24594 34.418 9.58994C34.71 9.93294 35.194 10.1049 35.87 10.1049C36.505 10.1049 36.973 9.92494 37.275 9.56494C37.577 9.20494 37.729 8.74094 37.729 8.17194V0.665941H40.447V8.12294C40.447 9.45494 40.066 10.4989 39.303 11.2559C38.54 12.0129 37.396 12.3919 35.87 12.3919C34.324 12.3919 33.169 12.0189 32.406 11.2719C31.643 10.5259 31.262 9.47594 31.262 8.12294V0.665941H33.981ZM9.139 0.665941V3.08194H5.914V12.1819H3.194V3.08194H0V0.665941H9.14H9.139ZM15.435 0.665941C15.978 0.665941 16.485 0.737941 16.955 0.882941C17.427 1.02794 17.834 1.23994 18.177 1.51894C18.52 1.79894 18.789 2.14494 18.983 2.55894C19.178 2.97194 19.275 3.44694 19.275 3.98394C19.275 4.65994 19.119 5.23394 18.807 5.70694C18.494 6.17994 18.016 6.53394 17.371 6.76994V6.81894C17.851 6.99094 18.218 7.23994 18.469 7.56794C18.719 7.89494 18.886 8.34794 18.969 8.92794C19.029 9.30494 19.068 9.67194 19.083 10.0319C19.099 10.3919 19.116 10.7139 19.137 10.9989C19.157 11.2829 19.188 11.5189 19.229 11.7069C19.27 11.8949 19.337 12.0049 19.429 12.0369V12.1819H16.787C16.715 12.1399 16.661 12.0289 16.626 11.8519C16.5845 11.6389 16.5534 11.424 16.533 11.2079C16.5056 10.9343 16.4826 10.6603 16.464 10.3859C16.444 10.0909 16.413 9.79894 16.372 9.50894C16.3 8.97194 16.124 8.56394 15.842 8.28394C15.561 8.00494 15.128 7.86594 14.544 7.86594H12.901V12.1819H10.182V0.665941H15.435ZM26.881 0.665941L30.844 12.1819H27.987L27.342 10.1049H23.502L22.872 12.1819H20.138L24.086 0.665941H26.881ZM45.909 0.665941L47.245 5.70694C47.297 5.88994 47.355 6.12894 47.422 6.42394C47.488 6.71894 47.558 7.00694 47.629 7.28594C47.711 7.61894 47.793 7.96794 47.875 8.33294H47.905C47.977 7.96794 48.055 7.61894 48.136 7.28594C48.198 7.00594 48.264 6.71894 48.336 6.42394C48.407 6.12894 48.469 5.88994 48.52 5.70694L49.872 0.665941H53.558V12.1819H51.07V5.82794C51.07 5.57594 51.075 5.32094 51.085 5.06294L51.116 4.07994H51.086C51.003 4.41294 50.932 4.71994 50.87 4.99894C50.7845 5.40967 50.6871 5.81784 50.578 6.22294L48.996 12.1829H46.754L45.187 6.23894C45.157 6.13194 45.11 5.95894 45.049 5.72294C44.9865 5.48341 44.9302 5.24233 44.88 4.99994C44.818 4.71994 44.752 4.41394 44.68 4.08094H44.65C44.65 4.43594 44.655 4.76294 44.665 5.06394C44.6815 5.4831 44.6915 5.90248 44.695 6.32194V12.1829H42.253V0.665941H45.909ZM61.1 0.665941V12.1819H58.381V0.665941H61.101H61.1ZM65.708 0.665941L68.964 6.44794C69.005 6.53394 69.069 6.65794 69.156 6.81794C69.243 6.97994 69.328 7.14094 69.41 7.30194C69.512 7.49494 69.614 7.69894 69.717 7.91394H69.747C69.737 7.65594 69.732 7.40894 69.732 7.17294C69.7219 6.97443 69.7169 6.7757 69.717 6.57694V0.665941H72.374V12.1819H69.64L66.415 6.47994C66.3391 6.36316 66.2697 6.24231 66.207 6.11794C66.1173 5.94592 66.0329 5.77117 65.954 5.59394C65.851 5.39094 65.744 5.16994 65.631 4.93394H65.601C65.601 5.21394 65.606 5.47594 65.616 5.72394C65.616 5.93794 65.618 6.14994 65.623 6.35994C65.629 6.56894 65.631 6.72194 65.631 6.81894V12.1819H62.974V0.665941H65.708ZM25.453 3.64594H25.423L25.269 4.24194C25.217 4.41294 25.169 4.58994 25.123 4.77294C25.081 4.94149 25.0323 5.10829 24.977 5.27294L24.132 8.05894H26.712L25.883 5.27194C25.7719 4.93265 25.6745 4.58904 25.591 4.24194C25.5388 4.04476 25.4928 3.846 25.453 3.64594ZM15.005 2.91994H12.901V5.75494H14.944C15.486 5.75494 15.894 5.63094 16.164 5.38494C16.436 5.13694 16.572 4.79394 16.572 4.35294C16.572 3.93394 16.442 3.59094 16.18 3.32294C15.92 3.05394 15.527 2.91994 15.005 2.91994Z" fill="black"/>
</svg>
