<svg width="26" height="26" viewBox="0 0 26 26" fill="none" xmlns="http://www.w3.org/2000/svg">
<path d="M21.6666 0.481506C22.6882 0.481506 23.6679 0.887325 24.3903 1.60969C25.1127 2.33205 25.5185 3.31178 25.5185 4.33336V17.7224C25.5185 18.744 25.1127 19.7237 24.3903 20.4461C23.6679 21.1684 22.6882 21.5742 21.6666 21.5742L7.91167 21.5733L1.99619 25.7082C1.8674 25.7979 1.71864 25.8548 1.56285 25.8739L1.44441 25.8816C1.2084 25.8815 0.980629 25.7948 0.804351 25.6379C0.628073 25.4809 0.515563 25.2647 0.488186 25.0303L0.481445 24.9186V4.33336C0.481445 3.31178 0.887264 2.33205 1.60963 1.60969C2.33199 0.887325 3.31172 0.481506 4.3333 0.481506H21.6666Z" fill="black"/>
</svg>
